<?xml version="1.0" encoding="UTF-8"?>
<svg width="16" height="16" version="1.1" viewBox="0 0 1.875 1.6875" xmlns="http://www.w3.org/2000/svg">
 <g id="008---Cutting-Paper">
  <path d="m1.7379 1.1808c-0.015135-0.02843-0.045795-0.036082-0.068448-0.017086l-0.3576 0.29986c-0.032313 0.027094-0.071074 0.036758-0.10918 0.027246l-1.19e-5 -3e-6c-0.038108-0.00951-0.070993-0.03709-0.092583-0.077643l-0.00287-0.00539c-0.044566-0.083695-0.026561-0.19728 0.040136-0.25321l0.6179-0.51811c0.054814-0.045948 0.092078-0.11594 0.10494-0.19706 0.012862-0.081121-2.244e-4 -0.16368-0.036853-0.23245-0.036614-0.068787-0.092391-0.11555-0.15703-0.13169-0.064655-0.016138-0.13045 2.7792e-4 -0.18525 0.046245l-0.11519 0.097315c-0.033621-0.039473-0.076432-0.065439-0.12285-0.073306-0.06354-0.010776-0.12781 0.013221-0.1763 0.065844l-1.0596 1.1497c-0.018832 0.020428-0.022587 0.055275-0.008752 0.081258 0.007524 0.01413 0.018962 0.023233 0.031417 0.026342 0.010451 0.00261 0.021606 0.00101 0.031756-0.00539l1.2519-0.78858c0.057303-0.036101 0.099566-0.10143 0.11593-0.17922 0.012244-0.058104 0.00915-0.1191-0.00802-0.17413l0.11459-0.096806c0.032887-0.027577 0.072358-0.037424 0.11115-0.027742 0.038788 0.009681 0.072253 0.037735 0.094228 0.079007 0.021975 0.041268 0.029822 0.090804 0.022107 0.13948-0.00772 0.048676-0.030083 0.090668-0.062958 0.11825l-0.61791 0.51809c-0.11195 0.093881-0.14218 0.28454-0.067345 0.42505l0.00285 0.00537c0.036233 0.068049 0.091418 0.11434 0.15539 0.13031l2.67e-5 6.8e-6c0.063961 0.015973 0.12904-2.68e-4 0.18327-0.045737l0.35761-0.29986c0.022669-0.019008 0.028765-0.057464 0.01362-0.085914zm-0.39404-0.717c-0.00914 0.04347-0.032765 0.079966-0.064781 0.10015l-0.89755 0.56535 0.7597-0.82423c0.027098-0.029415 0.063006-0.042818 0.098509-0.036801 0.00257 4.2997e-4 0.00512 9.5342e-4 0.00764 0.001582 0.015375 0.003839 0.029896 0.011297 0.042907 0.021728l-0.10047 0.08548c-0.022556 0.019201-0.02845 0.057708-0.013141 0.086014 0.015295 0.028318 0.045984 0.035719 0.06854 0.016517l0.1005-0.085506c0.00351 0.022876 0.00299 0.046692-0.00185 0.069708z" fill="#fff" stroke-width=".0018484"/>
 </g>
</svg>
